<?xml version="1.0" encoding="UTF-8"?>
<!DOCTYPE svg PUBLIC "-//W3C//DTD SVG 1.1//EN" "http://www.w3.org/Graphics/SVG/1.1/DTD/svg11.dtd">
<!-- Creator: CorelDRAW 2021 (64-Bit) -->
<svg xmlns="http://www.w3.org/2000/svg" xml:space="preserve" width="10.7616mm" height="10.8374mm" version="1.1" style="shape-rendering:geometricPrecision; text-rendering:geometricPrecision; image-rendering:optimizeQuality; fill-rule:evenodd; clip-rule:evenodd"
viewBox="0 0 0.68 0.69"
 xmlns:xlink="http://www.w3.org/1999/xlink"
 xmlns:xodm="http://www.corel.com/coreldraw/odm/2003">
 <defs>
  <style type="text/css">
   <![CDATA[
    .fil0 {fill:#2C68A6}
    .fil1 {fill:#2D6BA6}
    .fil2 {fill:#6E6E6E}
    .fil4 {fill:#717171}
    .fil3 {fill:#757575}
   ]]>
  </style>
 </defs>
 <g id="Capa_x0020_1">
  <metadata id="CorelCorpID_0Corel-Layer"/>
  <path class="fil0" d="M0.08 0.2c0.03,-0.07 0.08,-0.11 0.14,-0.15 0.21,-0.11 0.43,0.06 0.45,0.29 0,0.01 0.01,0.01 0.01,0 -0,-0.04 -0.01,-0.09 -0.02,-0.13 -0,-0.01 -0.01,-0.03 -0.01,-0.03 -0,-0 -0,-0 -0,-0l-0.01 -0.01c-0.1,-0.2 -0.37,-0.21 -0.53,-0.07 -0.17,0.15 -0.12,0.39 0.03,0.52l0.03 0.02c0,0 0.01,0 0.01,0 0,0 0,0 0,0l0.01 0.01c0,0 0.01,0 0.01,0.01l0.02 0.01c0,0 0,0 0,0 0,0 0.01,0 0.02,0.01 0,0 0.01,0 0.01,0l0.02 0c0.01,0 0.01,0 0.01,0l0.02 0c0.04,0 0.04,0 0.08,0 0,-0 0,-0 0,-0 0,-0 -0,-0 0,-0 0,-0 0.01,-0 0.01,-0l0.01 -0c0.02,-0 0.03,-0.01 0.05,-0.01 0,-0 0,-0 0.01,-0 0,-0 0,-0 0.01,-0 0,-0 0,-0 0,-0 0,-0 0,-0 0,-0 0,-0 0,-0 0.01,-0l0.03 -0.01c0,-0 0,-0 0.01,-0 0,-0 0,-0 0,-0l0.03 -0.02c0,-0 0,-0 0.01,-0 0.01,-0.01 0.02,-0.01 0.02,-0.02 0,-0 0,-0 0,-0 0,-0 0,-0 0,-0l0.01 -0.01c0,-0 0.01,-0.01 0.01,-0.01l0.01 -0.01c0,-0 0,-0 0,-0l0.01 -0.01c0.01,-0.01 0.01,-0.01 0.01,-0.02 0,-0 0,-0 0,-0.01 0,-0.01 0,-0.01 -0,-0.02 -0,-0 -0.01,-0 -0.01,-0 -0,0 -0,0 -0.01,0 -0,0 -0,0 -0,0l-0.01 0.01c-0,0 -0.01,0.01 -0.01,0.01 -0,0 -0,0 -0,0 -0,0 -0,0 -0,0l-0 0c-0,0 -0,0 -0,0 -0,0 -0,0 -0,0l-0.05 0.04 -0.01 0.01c-0,0 -0,0 -0.01,0 -0.01,0.01 -0.01,0 -0.02,0.01 -0,0 -0,0 -0,0l-0.01 0c-0.01,0 -0.05,0 -0.05,-0 -0,-0.01 0.01,-0.01 0.01,-0.01l0.03 -0.01c0,-0 0,-0 0,-0 0.01,-0 0.01,-0 0.02,-0 0,-0 0.01,-0 0.01,-0 0.02,-0.01 0.04,-0.06 -0.04,-0.04 -0,0 -0.01,0 -0.01,0l-0 0c-0,0 -0.01,0 -0.01,0 -0.02,0 -0.06,0 -0.08,0 -0.01,0 -0.02,0 -0.03,0 -0.02,0 -0.01,0 -0.03,0.01 -0.04,0.01 -0.04,0.02 -0.09,0.01 -0,-0 -0.02,-0.01 -0.02,-0.01 -0,-0 -0,-0 -0.01,-0l-0.01 -0.01c-0,-0 -0,-0 -0,-0l-0.01 -0.01c-0.03,-0.02 -0.04,-0.04 -0.05,-0.07 -0.06,-0.09 -0.04,-0.17 -0.01,-0.26z"/>
  <path class="fil1" d="M0.44 0.28c0,0.01 0,0.01 0,0.02 0,0.01 -0,0.03 -0,0.04l-0 0.03c-0,0.02 -0.01,0.04 -0.01,0.06 -0,0 -0,0.01 -0,0.01l-0 0.04c-0,0.01 0,0.02 0,0.03 0,0.01 0,0.01 0,0.01 0,0 0,0 0,0 0.01,0 0.01,0 0.02,-0l0 -0c0,-0 0,-0 0,-0 0,-0 0,-0 0,-0.01 0,-0 0,-0 0,-0 0,-0 0,-0 0,-0 0,-0 0,-0 0,-0l0 -0.01c0,-0.01 0,-0.08 0.02,-0.08 0.01,0 0.01,0.02 0.01,0.03 0,0.01 0.01,0.04 0.01,0.04 0.01,0.02 0,0.03 0.02,0.05 0,0 0.02,0 0.02,0 0.01,-0.01 0,-0.02 0,-0.03 -0,-0 -0,-0.01 -0,-0.01l-0.01 -0.06c-0,-0 -0,-0.01 -0,-0.02 -0,-0 -0,-0 -0,-0 -0,-0 -0,-0 -0,-0 -0,-0 -0,-0 -0,-0.01 -0,-0 -0,-0 -0,-0.01 -0,-0 -0.01,-0.02 -0.01,-0.03 -0,-0.02 -0.01,-0.04 -0.01,-0.07 0,-0 0,-0.01 0,-0.01 0,-0 0.01,0 0.01,0 0,0 0,0 0,0 0,0.01 0.01,0.01 0.01,0.02 0,0 0,0.01 0,0.01 0,0 0.01,0.02 0.01,0.02 0,0 0,0.01 0,0.01 0,0 0,0.01 0,0.01 0,0.01 0.01,0.02 0.01,0.03l0 0.01c0,0 0,0 0,0 0,0 -0,0 0,0l0 0c0,0 0,0.01 0.01,0.01 0.01,-0 0.01,-0.03 0.01,-0.04 0,-0.04 -0,-0.05 -0.02,-0.09 -0,-0 -0,-0 -0,-0.01 -0,-0 -0,-0.01 -0,-0.01 -0,-0.01 -0.01,-0.01 -0.01,-0.01l-0.01 -0.01c-0.01,-0.01 -0.01,-0.01 -0.02,-0.02 -0.01,-0.01 -0.02,-0.02 -0.03,-0.02 -0.03,-0.02 -0.03,-0.02 -0.06,-0.04 -0.02,-0.02 -0.03,-0.03 -0.04,-0.06 -0.01,-0.01 -0.01,-0.02 -0.01,-0.03 -0,-0 -0.01,-0.03 -0.01,-0.03 -0,0 0,0.03 0,0.03 0.02,0.09 0.05,0.1 0.07,0.18z"/>
  <path class="fil2" d="M0.31 0.18c-0,0 -0,0 -0.01,0.01 -0.01,0.01 -0.01,0.01 -0.02,0.01 -0,0 -0,0 -0.01,0l-0.02 0.01c-0,0 -0,0 -0,0l-0.01 0.01c-0,0 -0,0 -0,0l-0.01 0.01c-0,0 -0,0 -0,0.01 -0,0.01 -0.01,0.01 -0.01,0.02 -0,0 -0,0.01 -0,0.01 -0,0.01 -0,0.01 -0,0.02 -0,0.01 -0,0.02 0,0.03 0,0 0,0 0,0 0,0.01 0,0.01 0.01,0.01 0.01,0.01 0.01,0.01 0.02,0.02 0,0 0.01,0 0.02,0.01 0.01,0 0.02,0 0.03,0.01 0,0 0.01,0 0.01,0 0.01,0 0.01,0 0.02,0.01 0.01,0 0.01,0.01 0.02,0.01 0,0 0,0 0,0 0,0 0,0 0,0 0,0 0,0 0,0 0.01,0.01 0.02,0.02 0.02,0.03 0.01,0.01 0.01,0.02 0.01,0.02l0 0.01 0 0.02c0,0.01 0,0.03 0.01,0.03 0,-0 0,-0.01 0.01,-0.01 0,-0.01 0.01,-0.03 0,-0.05 -0,-0 -0,-0.01 -0,-0.02l-0 -0.01c-0,-0.01 -0,-0.01 -0.01,-0.02l-0 -0.01c-0,-0 -0,-0 -0,-0.01 -0,-0 -0,-0 -0,-0 -0,-0 -0,-0.01 -0.01,-0.01l-0 -0c-0,-0 -0,-0 -0,-0 -0,-0 -0,-0 -0,-0 -0,-0 -0,-0 -0,-0l-0.01 -0.01c-0,-0 -0.01,-0 -0.01,-0.01 -0.01,-0.01 -0.02,-0.01 -0.03,-0.02l-0.01 -0.01c-0,-0 -0,-0 -0,-0 -0,-0 -0,-0 -0,-0l-0.01 -0c-0,-0 -0,-0 -0,-0 -0,-0 -0.01,-0.01 -0.01,-0.01 -0,-0 -0,-0.01 -0.01,-0.01 -0,-0 -0,-0 -0,-0.01 -0,-0.01 -0,-0.02 0,-0.03 0,-0.01 0,-0.01 0.01,-0.02 0,-0.01 0.01,-0.01 0.01,-0.02l0.01 -0.01c0,-0 0.01,-0.01 0.01,-0.01 0,-0 0,-0 0,-0 0,-0 0.01,-0.01 0.01,-0.01l0.01 -0.01c0,-0 0,-0 0,-0 0,-0 0,-0 0.01,-0.01 0,-0 0,-0 0,-0 0,-0 0.01,-0.01 0.01,-0.01 0.01,-0.01 0.01,-0.02 0.01,-0.03 0,-0 0,-0 0,-0 0,-0 0,-0 0,-0 0,-0 0,-0.01 0,-0.01 0,-0.01 0,-0.06 0,-0.06 -0,0 -0,0 -0,0 -0.01,0.03 -0.02,0.08 -0.05,0.1z"/>
  <path class="fil2" d="M0.15 0.3c0,0.02 0,0.01 0,0.03 0,0 0,0.01 0,0.01 0,0.01 0,0.01 0.01,0.02 0,0.01 0,0.01 0.01,0.01l0.01 0.01c0,0 0,0 0,0 0.01,0 0.01,0.01 0.02,0.01 0,0 0.01,0 0.01,0 0,0 0.02,0 0.02,0l0.03 0.01c0,0 0,0 0,0 0,0 0,0 0,0 0,0 0.01,0 0.01,0 0,0 0.01,0 0.01,0l0.01 0c0.01,0 0.01,0.01 0.01,0.01 0,0 0.01,0.01 0.01,0.02 0,0 0,0 0,0 0.01,0.01 0.01,0.02 0.01,0.03 0,0.01 0,0.02 0,0.02 0,0.01 -0,0.01 0,0.02 0,0 0.01,0 0.01,0 0,0 0.01,-0 0.01,-0 0,-0.01 0,-0.02 0,-0.03 -0,-0.02 -0.01,-0.02 -0.01,-0.04l-0.01 -0.01c-0,-0 -0.01,-0.01 -0.02,-0.02 -0.01,-0.01 -0.03,-0.02 -0.03,-0.02 -0,-0 -0.01,-0.01 -0.02,-0.01l-0.04 -0.01c-0.01,-0 -0.01,-0 -0.02,-0.01 -0.01,-0 -0.02,-0.01 -0.03,-0.02l-0 -0.01c-0,-0 -0,-0 -0,-0l-0 -0c-0,-0 -0,-0 -0,-0 -0,-0 -0,-0 -0,-0l-0 -0.04c-0,-0.01 -0,-0.02 -0.01,-0.03 -0.01,-0.01 -0.01,0 -0.02,0.01 -0,0.01 -0,0.01 -0,0.01 -0,0 -0,0.01 -0,0.01z"/>
  <path class="fil2" d="M0.25 0.14c-0.01,0 -0.01,0 -0.02,0.01 -0.01,0.01 -0.01,0.03 0,0.04 0.01,0 0.01,0.01 0.02,0.01 0.01,-0 0.02,-0.01 0.02,-0.01 0.01,-0.01 0.01,-0.02 -0,-0.03 -0,-0 -0.01,-0.01 -0.01,-0.01 -0,-0 -0.02,-0.01 -0.02,-0.01z"/>
  <path class="fil1" d="M0.54 0.16c-0,-0.01 -0,-0.01 -0.01,-0.02 -0.01,-0.01 -0.04,-0.01 -0.05,0l-0 0c-0,0.01 -0,0.02 0,0.02 0,0 0,0.01 0.01,0.01 0.01,0.01 0.02,0.01 0.03,0.01 0.01,-0 0.01,-0.01 0.02,-0.01 0,-0 0.01,-0.01 0.01,-0.02z"/>
  <path class="fil3" d="M0.16 0.51c0,-0 0,-0.01 0,-0.02 0,-0.01 0,-0.02 0.01,-0.02 0,-0.01 0.01,-0.01 0.01,-0.02l0 -0c0,-0 0,-0 0,-0l0 -0c0,-0 0.01,-0.01 0.01,-0.01 0,-0 0,-0 0,-0 0.01,-0 0.01,-0 0.03,-0 0,0 0.01,-0 0.01,0 0,0 0.01,0 0.01,0 -0,-0 0,-0 -0,-0l-0.01 -0c-0,-0 -0.01,-0 -0.01,-0 -0.01,-0 -0.03,-0 -0.04,0 -0.01,0.01 -0,0 -0.01,0.01 -0,0 -0,0 -0,0l-0 0c-0,0 -0,0 -0,0l-0 0c-0,0 -0,0 -0,0l-0.01 0.01c-0,0 -0.01,0.01 -0.01,0.02l-0.01 0.01c-0,0.01 -0.01,0.02 -0.01,0.02 -0,0.01 -0,0 0.01,0.01 0,0 0.01,0 0.01,0z"/>
  <path class="fil4" d="M0.18 0.41c-0,-0 0,-0 -0,-0 -0,-0 -0,-0 -0,-0 -0.01,-0 -0.01,0 -0.02,0l-0.01 0 -0.01 0.01c-0,0 -0,0 -0,0l-0.02 0.02c-0.01,0.01 -0,0.01 0,0.02 0.01,0.01 0,0.01 0.01,-0.01 0,-0.01 0,-0 0.01,-0.01 0,-0 0,-0 0,-0.01l0.01 -0.01c0,-0 0.02,-0.01 0.02,-0.02 0,-0 0,-0 0,-0z"/>
 </g>
</svg>
